<?xml version="1.0" standalone="no"?>
<!DOCTYPE svg PUBLIC "-//W3C//DTD SVG 20010904//EN"
 "http://www.w3.org/TR/2001/REC-SVG-20010904/DTD/svg10.dtd">
<svg version="1.0" xmlns="http://www.w3.org/2000/svg"
 width="512.000000pt" height="512.000000pt" viewBox="0 0 512.000000 512.000000"
 preserveAspectRatio="xMidYMid meet">
<metadata>
Created by potrace 1.13, written by Peter Selinger 2001-2015
</metadata>
<g transform="translate(0.000000,512.000000) scale(0.100000,-0.100000)"
fill="#000000" stroke="none">
<path d="M3830 5051 c-98 -31 -138 -59 -267 -186 l-128 -124 653 -653 654
-653 114 120 c64 66 131 145 149 176 85 138 83 313 -3 464 -48 83 -720 756
-807 808 -111 65 -253 84 -365 48z"/>
<path d="M3060 4408 l-151 -142 677 -677 678 -678 35 30 c20 16 90 80 156 143
l120 115 -675 675 c-371 372 -678 676 -682 676 -4 0 -75 -64 -158 -142z"/>
<path d="M2033 3378 c-1377 -1365 -1531 -1520 -1542 -1546 -6 -15 -112 -373
-236 -797 -151 -511 -227 -787 -228 -821 -2 -104 83 -189 188 -187 33 1 307
76 820 227 424 124 784 233 802 241 28 13 638 612 1825 1795 l407 405 -679
678 -679 678 -678 -673z m-1158 -1848 l50 -49 249 -21 c138 -11 252 -22 254
-24 2 -2 10 -114 18 -248 l15 -243 61 -62 c34 -34 60 -64 57 -66 -2 -2 -188
-58 -414 -124 l-410 -121 -92 90 -91 91 14 46 c7 25 62 211 121 414 59 202
110 367 113 367 2 0 27 -22 55 -50z"/>
</g>
</svg>
