<?xml version="1.0" standalone="no"?>
<!DOCTYPE svg PUBLIC "-//W3C//DTD SVG 20010904//EN"
 "http://www.w3.org/TR/2001/REC-SVG-20010904/DTD/svg10.dtd">
<svg version="1.0" xmlns="http://www.w3.org/2000/svg"
 width="512.000000pt" height="512.000000pt" viewBox="0 0 512.000000 512.000000"
 preserveAspectRatio="xMidYMid meet">
<metadata>
Created by potrace 1.13, written by Peter Selinger 2001-2015
</metadata>
<g transform="translate(0.000000,512.000000) scale(0.100000,-0.100000)"
fill="#000000" stroke="none">
<path d="M465 5105 c-225 -50 -403 -229 -450 -453 -22 -101 -22 -4083 0 -4184
42 -199 188 -364 385 -436 l75 -27 1505 -3 1505 -2 -100 100 -100 100 -1270 0
c-1211 0 -1272 1 -1310 19 -49 22 -91 69 -105 119 -8 26 -10 351 -8 1062 l3
1025 24 38 c13 21 42 50 64 65 l41 27 1835 0 1836 0 38 -24 c21 -13 50 -42 65
-64 l27 -41 3 -505 3 -506 142 -145 c208 -210 284 -294 318 -350 17 -28 32
-50 35 -50 6 0 37 60 56 109 38 97 39 143 36 1636 l-3 1450 -27 57 c-59 126
-171 261 -438 528 -267 267 -402 379 -528 438 l-57 27 -1770 2 c-1443 1 -1781
-1 -1830 -12z m3360 -204 c50 -22 91 -69 105 -119 6 -24 10 -291 10 -753 l0
-717 -28 -53 c-22 -43 -38 -59 -81 -81 l-53 -28 -1317 0 c-1251 0 -1318 1
-1356 19 -59 26 -101 80 -115 144 -7 38 -10 266 -8 759 l3 705 30 48 c20 32
45 56 74 72 l44 23 1326 0 c1265 0 1328 -1 1366 -19z"/>
<path d="M2957 4723 c-4 -3 -7 -314 -7 -690 l0 -683 295 0 295 0 0 690 0 690
-288 0 c-159 0 -292 -3 -295 -7z"/>
<path d="M2424 2338 c-26 -12 -44 -48 -44 -88 0 -31 214 -770 234 -806 6 -12
210 -223 454 -470 l442 -448 340 339 339 339 -433 440 c-238 242 -443 448
-457 458 -27 20 -791 248 -829 247 -14 0 -35 -5 -46 -11z m742 -391 c3 -3 -26
-60 -63 -127 l-69 -123 -120 -68 c-65 -38 -124 -68 -129 -69 -6 0 -39 95 -73
212 l-62 212 46 47 45 46 210 -62 c115 -34 212 -65 215 -68z"/>
<path d="M3958 763 l-337 -338 73 -77 72 -77 339 339 339 339 -68 75 c-37 42
-71 76 -74 76 -4 0 -159 -152 -344 -337z"/>
<path d="M4210 514 l-325 -325 69 -66 c37 -36 83 -71 102 -79 47 -20 141 -17
189 5 25 12 113 92 236 217 211 213 219 226 219 324 -1 64 -28 116 -102 187
l-63 63 -325 -326z"/>
</g>
</svg>
