<?xml version="1.0" standalone="no"?>
<!DOCTYPE svg PUBLIC "-//W3C//DTD SVG 20010904//EN"
 "http://www.w3.org/TR/2001/REC-SVG-20010904/DTD/svg10.dtd">
<svg version="1.0" xmlns="http://www.w3.org/2000/svg"
 width="512.000000pt" height="512.000000pt" viewBox="0 0 512.000000 512.000000"
 preserveAspectRatio="xMidYMid meet">
<metadata>
Created by potrace 1.13, written by Peter Selinger 2001-2015
</metadata>
<g transform="translate(0.000000,512.000000) scale(0.100000,-0.100000)"
fill="#000000" stroke="none">
<path d="M2365 5114 c-660 -68 -1183 -312 -1622 -756 -403 -406 -641 -894
-725 -1483 -17 -118 -17 -512 0 -630 60 -422 199 -788 424 -1122 165 -246 435
-516 680 -681 332 -224 704 -364 1123 -424 116 -17 511 -16 630 0 460 65 873
233 1230 501 127 96 343 306 448 436 244 303 438 710 511 1077 44 216 51 292
50 538 -1 259 -17 398 -74 619 -88 350 -267 706 -495 986 -228 280 -522 514
-855 679 -246 122 -491 198 -770 241 -101 15 -469 28 -555 19z m316 -804 c110
-41 186 -121 220 -231 18 -56 19 -100 19 -610 l0 -548 573 -3 572 -3 57 -28
c126 -62 200 -172 206 -309 9 -170 -88 -309 -249 -359 -56 -18 -100 -19 -610
-19 l-549 0 0 -549 c0 -510 -1 -554 -19 -610 -50 -161 -189 -258 -359 -249
-137 6 -247 80 -309 206 l-28 57 -3 573 -3 572 -548 0 c-510 0 -554 1 -610 19
-161 50 -258 189 -249 359 6 137 80 247 206 309 l57 28 572 3 572 3 3 572 c3
636 -1 596 74 698 88 121 265 173 405 119z"/>
</g>
</svg>
