<?xml version="1.0" encoding="utf-8"?>
<!-- Generator: Adobe Illustrator 15.0.2, SVG Export Plug-In . SVG Version: 6.00 Build 0)  -->
<!DOCTYPE svg PUBLIC "-//W3C//DTD SVG 1.1//EN" "http://www.w3.org/Graphics/SVG/1.1/DTD/svg11.dtd">
<svg version="1.1" id="Layer_1" xmlns="http://www.w3.org/2000/svg" xmlns:xlink="http://www.w3.org/1999/xlink" x="0px" y="0px"
	 width="512px" height="669.242px" viewBox="0.333 0 512 669.242" enable-background="new 0.333 0 512 669.242"
	 xml:space="preserve">
<path d="M216.498,39.818V533.3L68.309,385.086c-15.562-15.555-40.751-15.555-56.314,0c-15.554,15.537-15.545,40.769,0,56.306
	l216.177,216.186c7.466,7.483,17.585,11.665,28.161,11.665c10.573,0,20.7-4.199,28.166-11.665l216.168-216.186
	c7.777-7.777,11.666-17.956,11.666-28.152c0-10.206-3.889-20.394-11.666-28.153c-15.554-15.571-40.752-15.571-56.306,0
	L296.147,533.3V39.818C296.147,17.831,278.295,0,256.325,0C234.324,0,216.498,17.831,216.498,39.818z"/>
</svg>
