<?xml version="1.0" standalone="no"?>
<!DOCTYPE svg PUBLIC "-//W3C//DTD SVG 20010904//EN"
 "http://www.w3.org/TR/2001/REC-SVG-20010904/DTD/svg10.dtd">
<svg version="1.0" xmlns="http://www.w3.org/2000/svg"
 width="512.000000pt" height="512.000000pt" viewBox="0 0 512.000000 512.000000"
 preserveAspectRatio="xMidYMid meet">
<metadata>
Created by potrace 1.13, written by Peter Selinger 2001-2015
</metadata>
<g transform="translate(0.000000,512.000000) scale(0.100000,-0.100000)"
fill="#000000" stroke="none">
<path d="M3830 5051 c-98 -31 -138 -59 -267 -186 l-128 -124 653 -653 654
-653 114 120 c64 66 131 145 149 176 85 138 83 313 -3 464 -48 83 -720 756
-807 808 -111 65 -253 84 -365 48z"/>
<path d="M3060 4408 l-151 -142 677 -677 678 -678 35 30 c20 16 90 80 156 143
l120 115 -675 675 c-371 372 -678 676 -682 676 -4 0 -75 -64 -158 -142z"/>
<path d="M2034 3379 c-1378 -1366 -1532 -1521 -1543 -1547 -6 -15 -112 -373
-236 -797 -151 -511 -227 -787 -228 -821 -2 -104 83 -189 188 -187 33 1 307
76 820 227 424 124 784 233 802 241 28 12 507 483 1826 1794 l407 406 -145
145 -145 145 -1079 -1079 -1078 -1078 -434 -128 -434 -128 -92 90 c-50 50 -90
96 -87 102 2 6 62 211 134 456 l130 445 1065 1065 1065 1065 -129 129 -128
128 -679 -673z"/>
<path d="M2096 2491 l-1079 -1079 89 -20 c49 -11 116 -26 149 -33 33 -6 65
-17 71 -23 6 -6 19 -63 28 -126 9 -63 20 -123 23 -134 4 -15 230 206 1084
1060 l1079 1079 -177 177 c-98 98 -180 178 -183 178 -3 0 -490 -485 -1084
-1079z"/>
</g>
</svg>
