<?xml version="1.0" standalone="no"?>
<!DOCTYPE svg PUBLIC "-//W3C//DTD SVG 20010904//EN"
 "http://www.w3.org/TR/2001/REC-SVG-20010904/DTD/svg10.dtd">
<svg version="1.0" xmlns="http://www.w3.org/2000/svg"
 width="512.000000pt" height="512.000000pt" viewBox="0 0 512.000000 512.000000"
 preserveAspectRatio="xMidYMid meet">
<metadata>
Created by potrace 1.13, written by Peter Selinger 2001-2015
</metadata>
<g transform="translate(0.000000,512.000000) scale(0.100000,-0.100000)"
fill="#000000" stroke="none">
<path d="M465 5105 c-225 -50 -403 -229 -450 -453 -22 -101 -22 -4083 0 -4184
42 -202 197 -374 396 -439 l74 -24 2075 0 2075 0 74 24 c150 49 285 167 351
306 64 133 61 31 58 1968 l-3 1762 -27 57 c-59 126 -171 261 -438 528 -267
267 -402 379 -528 438 l-57 27 -1770 2 c-1443 1 -1781 -1 -1830 -12z m3360
-204 c50 -22 91 -69 105 -119 6 -24 10 -291 10 -753 l0 -717 -28 -53 c-22 -43
-38 -59 -81 -81 l-53 -28 -1317 0 c-1251 0 -1318 1 -1356 19 -59 26 -101 80
-115 144 -7 38 -10 266 -8 759 l3 705 30 48 c20 32 45 56 74 72 l44 23 1326 0
c1265 0 1328 -1 1366 -19z m608 -2370 c21 -13 50 -42 65 -64 l27 -41 3 -1025
c2 -711 0 -1037 -8 -1063 -14 -50 -56 -97 -105 -119 -38 -18 -116 -19 -1853
-19 -1614 0 -1817 2 -1850 15 -49 21 -81 52 -103 100 -18 38 -19 90 -19 1055
0 684 4 1027 11 1053 13 47 77 113 121 126 21 6 723 9 1853 8 l1820 -2 38 -24z"/>
<path d="M2957 4723 c-4 -3 -7 -314 -7 -690 l0 -683 295 0 295 0 0 690 0 690
-288 0 c-159 0 -292 -3 -295 -7z"/>
</g>
</svg>
