<?xml version="1.0" standalone="no"?>
<!DOCTYPE svg PUBLIC "-//W3C//DTD SVG 20010904//EN"
 "http://www.w3.org/TR/2001/REC-SVG-20010904/DTD/svg10.dtd">
<svg version="1.0" xmlns="http://www.w3.org/2000/svg"
 width="512.000000pt" height="512.000000pt" viewBox="0 0 512.000000 512.000000"
 preserveAspectRatio="xMidYMid meet">
<metadata>
Created by potrace 1.13, written by Peter Selinger 2001-2015
</metadata>
<g transform="translate(0.000000,512.000000) scale(0.100000,-0.100000)"
fill="#000000" stroke="none">
<path d="M1634 3581 c-42 -25 -68 -82 -59 -129 5 -32 64 -95 431 -462 l424
-425 -415 -415 c-228 -228 -422 -430 -431 -448 -43 -92 59 -207 153 -172 15 6
217 200 450 433 l423 422 427 -426 c298 -297 437 -429 457 -433 88 -21 176 78
147 166 -8 23 -141 163 -431 453 l-420 420 424 425 c463 464 456 454 422 533
-26 63 -110 96 -169 66 -12 -6 -210 -198 -439 -428 l-418 -416 -417 417 c-230
229 -431 422 -446 428 -42 15 -78 12 -113 -9z"/>
</g>
</svg>
